<svg width="264" height="142" viewBox="0 0 264 142" fill="none" xmlns="http://www.w3.org/2000/svg">
<path d="M2.40832 40.2429C2.40832 35.8354 5.97263 32.2902 10.4039 32.2902V29.8947C4.67214 29.8947 0 34.5418 0 40.2429H2.40832ZM2.40832 131.604V40.2429H0V131.604H2.40832ZM10.4039 139.605C5.97263 139.605 2.40832 136.059 2.40832 131.652H0C0 137.353 4.67214 142 10.4039 142V139.605ZM253.596 139.605H10.4039V142H253.548V139.605H253.596ZM261.592 131.604C261.592 136.011 258.027 139.557 253.596 139.557V141.952C259.328 141.952 264 137.305 264 131.604H261.592ZM261.592 40.2429V131.604H264V40.2429H261.592ZM253.596 32.2902C258.027 32.2902 261.592 35.8354 261.592 40.2429H264C264 34.5418 259.328 29.8947 253.596 29.8947V32.2902ZM10.4039 32.2902H253.548V29.8947H10.4039V32.2902Z" fill="#00E296"/>
<path d="M225.322 68.7962H33.6201V91.4089H225.322V68.7962Z" fill="#93EA20"/>
<path d="M225.322 98.5472H33.6201V122.166H225.322V98.5472Z" fill="#93EA20"/>
<path d="M157.36 114.501C155.24 114.501 154.181 113.207 154.181 109.662V108.848C154.181 105.733 155.24 104.248 157.263 104.248C159.479 104.248 160.394 105.638 160.394 109.039V109.854C160.394 113.016 159.383 114.501 157.36 114.501ZM157.263 117.854C161.502 117.854 165.307 115.459 165.307 109.566V109.039C165.307 103.29 161.791 100.847 157.36 100.847C153.121 100.847 149.316 103.242 149.316 109.135V109.662C149.316 115.459 152.832 117.854 157.263 117.854ZM142.765 117.567H147.389V101.134H142.765V117.567ZM130.916 114.357V104.44H132.458C134.721 104.44 136.022 105.446 136.022 108.943V109.758C136.022 113.207 134.914 114.357 132.602 114.357H130.916ZM126.244 117.567H132.65C137.804 117.567 140.887 115.076 140.887 109.518V108.991C140.887 103.338 137.804 101.182 132.65 101.182H126.292V117.567H126.244ZM116.418 105.925H116.514L118.297 111.387H114.684L116.418 105.925ZM108.567 117.567H112.757L113.769 114.309H119.212L120.32 117.567H125.04L119.308 101.134H114.395L108.567 117.567ZM98.9337 108.848V104.296H100.62C102.305 104.296 102.98 104.967 102.98 106.5C102.98 108.081 102.305 108.848 100.668 108.848H98.9337ZM94.3579 117.567H98.9819V111.626H100.668L103.702 117.615H108.519L104.81 110.572V110.476C106.544 109.758 107.556 108.56 107.556 106.308C107.556 102.763 105.436 101.182 101.294 101.182H94.3579V117.567Z" fill="#004550"/>
<path d="M17.051 105.733H75.525C76.3919 103.434 77.0181 101.038 77.3071 98.5952H15.2688C15.5578 100.991 16.1358 103.434 17.051 105.733Z" fill="#004550"/>
<path d="M14.0645 98.691C14.4017 101.23 14.9797 103.721 15.8949 106.117L18.1587 105.254C17.3398 103.051 16.7619 100.751 16.4729 98.4035L14.0645 98.691ZM77.307 97.3495H15.2687V99.7449H77.307V97.3495ZM76.6327 106.117C77.5478 103.721 78.174 101.23 78.463 98.691L76.0547 98.4035C75.7657 100.751 75.1877 103.051 74.3689 105.254L76.6327 106.117ZM17.0508 106.931H75.5249V104.536H17.0508V106.931ZM15.2687 98.5472V97.3495C14.9315 97.3495 14.5944 97.4932 14.3535 97.7328C14.1127 97.9723 14.0164 98.3556 14.0645 98.691L15.2687 98.5472ZM77.307 98.5472L78.5112 98.691C78.5593 98.3556 78.463 98.0202 78.2222 97.7328C77.9813 97.4932 77.6442 97.3495 77.307 97.3495V98.5472ZM75.5249 105.733V106.931C76.0065 106.931 76.4882 106.644 76.6327 106.165L75.5249 105.733ZM17.0508 105.733L15.943 106.165C16.1357 106.644 16.5692 106.931 17.0508 106.931V105.733Z" fill="#93EA20"/>
<path d="M14.9797 94.7625C14.9797 96.056 15.0761 97.3016 15.2206 98.5952H77.2589C77.4034 97.3016 77.4997 96.056 77.4997 94.7625C77.4997 93.6606 77.4515 92.5587 77.3071 91.4089H15.1724C15.0761 92.5108 14.9797 93.6127 14.9797 94.7625Z" fill="#004550"/>
<path d="M13.9683 91.2652C13.8238 92.415 13.7756 93.5648 13.7756 94.7146H16.184C16.184 93.6606 16.2321 92.5587 16.3766 91.5048L13.9683 91.2652ZM77.4034 90.2112H15.1725V92.6067H77.3553V90.2112H77.4034ZM78.7521 94.7625C78.7521 93.6127 78.7039 92.4629 78.5594 91.3131L76.1511 91.5527C76.2474 92.6067 76.3438 93.7085 76.3438 94.7625H78.7521ZM78.5113 98.7389C78.7039 97.3975 78.7521 96.104 78.8003 94.7625H76.3919C76.3919 96.0081 76.2956 97.2058 76.1511 98.4515L78.5113 98.7389ZM15.2688 99.7929H77.3071V97.3975H15.2688V99.7929ZM13.7756 94.7625C13.7756 96.104 13.872 97.4454 14.0646 98.7389L16.473 98.4515C16.3285 97.2058 16.2321 96.0081 16.2321 94.7625H13.7756ZM15.1725 91.4089V90.2112C14.5463 90.2112 14.0646 90.6903 13.9683 91.2652L15.1725 91.4089ZM77.4034 91.4089L78.6076 91.2652C78.5594 90.6424 78.0296 90.2112 77.4034 90.2112V91.4089ZM77.5479 94.7625H78.7521H77.5479ZM77.3071 98.5952V99.7929C77.9333 99.7929 78.4149 99.3617 78.5113 98.7389L77.3071 98.5952ZM15.2688 98.5952L14.0646 98.7389C14.161 99.3138 14.6426 99.7929 15.2688 99.7929V98.5952Z" fill="#93EA20"/>
<path d="M28.0811 120.01H64.4949C67.2885 118.046 69.6969 115.603 71.6717 112.872H20.9043C22.8791 115.603 25.2874 118.046 28.0811 120.01Z" fill="#004550"/>
<path d="M19.8926 113.543C21.9638 116.417 24.4685 118.908 27.3584 120.968L28.7553 119.004C26.1061 117.088 23.746 114.788 21.8193 112.153L19.8926 113.543ZM71.6715 111.674H20.9041V114.07H71.7197V111.674H71.6715ZM65.1691 120.968C68.059 118.908 70.5637 116.417 72.6349 113.543L70.66 112.153C68.7334 114.788 66.4214 117.136 63.7241 119.052L65.1691 120.968ZM28.0809 121.208H64.4947V118.812H28.0809V121.208ZM20.9041 112.872V111.674C20.4706 111.674 20.0371 111.914 19.8445 112.345C19.6518 112.728 19.6518 113.207 19.9408 113.59L20.9041 112.872ZM71.6715 112.872L72.6349 113.59C72.8757 113.207 72.9239 112.728 72.7312 112.345C72.5385 111.962 72.105 111.674 71.6715 111.674V112.872ZM64.4947 120.01V121.208C64.7356 121.208 64.9764 121.112 65.2172 120.968L64.4947 120.01ZM28.0809 120.01L27.3584 120.968C27.5511 121.112 27.7919 121.208 28.0809 121.208V120.01Z" fill="#93EA20"/>
<path d="M46.288 125.855C52.8386 125.855 59.1965 123.795 64.4949 120.01H28.0811C33.3794 123.795 39.7373 125.855 46.288 125.855Z" fill="#004550"/>
<path d="M27.3585 120.968C32.8495 124.897 39.4965 127.053 46.2879 127.053V124.657C40.0263 124.657 33.861 122.693 28.8035 119.052L27.3585 120.968ZM64.4948 118.812H28.081V121.208H64.4948V118.812ZM46.2879 127.053C53.0794 127.053 59.6782 124.945 65.2173 120.968L63.8205 119.004C58.7149 122.645 52.5977 124.609 46.3361 124.609L46.2879 127.053ZM28.081 120.01V118.812C27.5512 118.812 27.1177 119.148 26.925 119.627C26.7805 120.106 26.925 120.681 27.3585 120.968L28.081 120.01ZM64.4948 120.01L65.2173 120.968C65.6508 120.681 65.8435 120.106 65.6508 119.627C65.4582 119.148 65.0247 118.812 64.4948 118.812V120.01ZM46.2879 125.855V124.657V125.855Z" fill="#93EA20"/>
<path d="M20.9043 112.872H71.6717C73.2612 110.668 74.5617 108.273 75.525 105.733H17.051C17.9662 108.273 19.2667 110.668 20.9043 112.872Z" fill="#004550"/>
<path d="M15.895 106.117C16.9065 108.752 18.2552 111.243 19.8928 113.543L21.8676 112.153C20.3263 110.045 19.074 107.698 18.1588 105.254L15.895 106.117ZM75.525 104.536H17.051V106.931H75.525V104.536ZM72.635 113.543C74.2727 111.243 75.6213 108.752 76.6328 106.117L74.369 105.254C73.4539 107.698 72.2015 109.997 70.6602 112.153L72.635 113.543ZM20.9043 114.07H71.6717V111.674H20.9043V114.07ZM17.051 105.733V104.536C16.6657 104.536 16.2803 104.727 16.0395 105.063C15.7987 105.398 15.7505 105.781 15.895 106.165L17.051 105.733ZM75.525 105.733L76.6328 106.165C76.7773 105.781 76.7292 105.398 76.4883 105.063C76.2475 104.727 75.9103 104.536 75.4768 104.536V105.733H75.525ZM71.6717 112.872V114.07C72.057 114.07 72.4424 113.878 72.635 113.59L71.6717 112.872ZM20.9043 111.674C20.23 111.674 19.7001 112.201 19.7001 112.872C19.7001 113.543 20.23 114.07 20.9043 114.07V111.674Z" fill="#93EA20"/>
<path d="M20.5188 77.1323C18.9775 79.336 17.7733 81.7314 16.8582 84.2706H75.7175C74.8023 81.7314 73.5982 79.336 72.0568 77.1323H20.5188Z" fill="#004550"/>
<path d="M72.0568 75.9345H20.5188V78.33H72.0568V75.9345ZM76.8253 83.8873C75.862 81.2524 74.6096 78.7611 73.0201 76.4615L71.0453 77.803C72.4903 79.9588 73.6945 82.2584 74.5615 84.7017L76.8253 83.8873ZM16.8581 85.4683H75.7175V83.0729H16.8581V85.4683ZM19.5073 76.4136C17.9178 78.7132 16.6655 81.2044 15.7021 83.8394L17.966 84.6538C18.8329 82.2105 20.0371 79.9109 21.4821 77.7551L19.5073 76.4136ZM72.0568 77.1322L73.0683 76.4615C72.8275 76.1262 72.4903 75.9345 72.0568 75.9345V77.1322ZM75.7175 84.2706V85.4683C76.1028 85.4683 76.4881 85.2766 76.6808 84.9413C76.9216 84.6059 76.9698 84.2227 76.8253 83.8394L75.7175 84.2706ZM16.8581 84.2706L15.7021 83.8873C15.5576 84.2706 15.6058 84.6538 15.8466 84.9892C16.0875 85.3245 16.4246 85.5162 16.81 85.5162V84.2706H16.8581ZM20.5188 77.1322V75.9345C20.1334 75.9345 19.7481 76.1262 19.5073 76.4615L20.5188 77.1322Z" fill="#93EA20"/>
<path d="M65.1691 69.946H27.4066C24.7574 71.9582 22.3973 74.3536 20.5188 77.0844H72.0569C70.1302 74.4015 67.8182 71.9582 65.1691 69.946Z" fill="#004550"/>
<path d="M73.0203 76.4136C71.0455 73.5871 68.6372 71.0479 65.8435 68.9879L64.3985 70.9042C66.9514 72.8205 69.2152 75.168 71.0455 77.7551L73.0203 76.4136ZM20.5189 78.33H72.057V75.9346H20.5189V78.33ZM26.6842 68.9879C23.9388 71.0479 21.4823 73.5871 19.5075 76.4136L21.4823 77.7551C23.3126 75.1201 25.5764 72.8205 28.1292 70.9042L26.6842 68.9879ZM65.1692 68.7483H27.4067V71.1437H65.121V68.7483H65.1692ZM72.057 77.1323V78.33C72.4905 78.33 72.924 78.0904 73.1167 77.7072C73.3093 77.3239 73.3093 76.8448 73.0203 76.4616L72.057 77.1323ZM20.5189 77.1323L19.5075 76.4616C19.2666 76.8448 19.2185 77.3239 19.4111 77.7072C19.6038 78.0904 20.0373 78.33 20.4708 78.33V77.1323H20.5189ZM27.4067 69.946V68.7483C27.1659 68.7483 26.8769 68.8441 26.6842 68.9879L27.4067 69.946Z" fill="#93EA20"/>
<path d="M15.1724 91.4089H77.3552C77.0662 88.9656 76.5364 86.5702 75.6694 84.2706H16.8582C15.9912 86.5702 15.4614 88.9656 15.1724 91.4089Z" fill="#004550"/>
<path d="M15.7023 83.8394C14.8353 86.2348 14.2573 88.7261 13.9683 91.2652L16.3767 91.5047C16.6175 89.1572 17.1955 86.8576 17.9662 84.6539L15.7023 83.8394ZM75.7177 83.0729H16.8583V85.4683H75.7177V83.0729ZM78.5595 91.2652C78.2705 88.7261 77.6925 86.2348 76.8255 83.8394L74.5617 84.6539C75.3805 86.8576 75.9103 89.1572 76.1512 91.5047L78.5595 91.2652ZM15.1725 92.6066H77.3553V90.2112H15.1725V92.6066ZM16.8583 84.2706V83.0729C16.3285 83.0729 15.895 83.4082 15.7023 83.8394L16.8583 84.2706ZM75.7177 84.2706L76.8737 83.8394C76.681 83.3603 76.2475 83.0729 75.7177 83.0729V84.2706ZM77.4035 91.4089V92.6066C77.7407 92.6066 78.0778 92.4629 78.3186 92.2234C78.5595 91.9838 78.6558 91.6485 78.6076 91.3131L77.4035 91.4089ZM15.1725 91.4089L13.9683 91.2652C13.9202 91.6006 14.0165 91.9359 14.2573 92.1754C14.4982 92.415 14.8353 92.5587 15.1725 92.5587V91.4089Z" fill="#93EA20"/>
<path d="M46.288 63.6221C39.4483 63.6221 32.8495 65.8259 27.4067 69.946H65.121C59.7264 65.8738 53.0794 63.6221 46.288 63.6221Z" fill="#004550"/>
<path d="M65.8917 69.0358C60.2562 64.7719 53.3684 62.4723 46.2879 62.4723V64.8678C52.8386 64.8678 59.1965 67.0236 64.4467 70.9521L65.8917 69.0358ZM27.4067 71.1437H65.121V68.7483H27.4067V71.1437ZM46.2879 62.4244C39.2075 62.4244 32.3197 64.724 26.6842 68.9879L28.1292 70.9042C33.3312 66.9278 39.6891 64.8199 46.2879 64.8199V62.4244ZM65.121 69.946V71.1437C65.6508 71.1437 66.0843 70.8084 66.277 70.3293C66.4697 69.8502 66.277 69.3232 65.8435 68.9879L65.121 69.946ZM27.4067 69.946L26.6842 68.9879C26.2507 69.3232 26.1062 69.8502 26.2507 70.3293C26.3952 70.8084 26.8769 71.1437 27.4067 71.1437V69.946ZM46.2879 63.6221V64.8199V63.6221Z" fill="#93EA20"/>
<path d="M188.523 105.733H246.997C247.864 103.434 248.49 101.038 248.779 98.5952H186.693C187.03 100.991 187.608 103.434 188.523 105.733Z" fill="#004550"/>
<path d="M185.489 98.7389C185.826 101.278 186.452 103.769 187.367 106.165L189.631 105.302C188.764 103.099 188.186 100.799 187.897 98.4514L185.489 98.7389ZM248.731 97.3495H186.693V99.7449H248.731V97.3495ZM248.105 106.117C249.02 103.721 249.646 101.23 249.935 98.691L247.527 98.4035C247.238 100.751 246.66 103.051 245.841 105.254L248.105 106.117ZM188.523 106.931H246.997V104.536H188.523V106.931ZM186.693 98.5472V97.3495C186.356 97.3495 186.019 97.4932 185.778 97.7328C185.537 97.9723 185.441 98.3556 185.489 98.691L186.693 98.5472ZM248.731 98.5472L249.935 98.691C249.984 98.3556 249.887 98.0202 249.646 97.7328C249.406 97.4932 249.068 97.3495 248.731 97.3495V98.5472ZM246.997 105.733V106.931C247.479 106.931 247.961 106.644 248.105 106.165L246.997 105.733ZM188.523 105.733L187.416 106.165C187.608 106.644 188.042 106.931 188.523 106.931V105.733Z" fill="#93EA20"/>
<path d="M186.452 94.7625C186.452 96.056 186.548 97.3016 186.693 98.5952H248.731C248.876 97.3016 248.972 96.056 248.972 94.7625C248.972 93.6606 248.924 92.5587 248.779 91.4089H186.645C186.5 92.5108 186.452 93.6127 186.452 94.7625Z" fill="#004550"/>
<path d="M185.441 91.2652C185.296 92.415 185.248 93.5648 185.248 94.7146H187.656C187.656 93.6606 187.705 92.5587 187.849 91.5048L185.441 91.2652ZM248.828 90.2112H186.645V92.6067H248.828V90.2112ZM250.225 94.7625C250.225 93.6127 250.176 92.4629 250.032 91.3131L247.624 91.5527C247.72 92.6067 247.816 93.7085 247.816 94.7625H250.225ZM249.936 98.7389C250.128 97.3975 250.176 96.104 250.225 94.7625H247.816C247.816 96.0081 247.72 97.2058 247.575 98.4515L249.936 98.7389ZM186.693 99.7929H248.731V97.3975H186.693V99.7929ZM185.248 94.7625C185.248 96.104 185.344 97.4454 185.537 98.7389L187.945 98.4515C187.801 97.2058 187.705 96.0081 187.705 94.7625H185.248ZM186.645 91.4089V90.2112C186.019 90.2112 185.537 90.6903 185.441 91.2652L186.645 91.4089ZM248.828 91.4089L250.032 91.2652C249.984 90.6424 249.454 90.2112 248.828 90.2112V91.4089ZM249.02 94.7625H250.225H249.02ZM248.731 98.5952V99.7929C249.358 99.7929 249.839 99.3617 249.936 98.7389L248.731 98.5952ZM186.693 98.5952L185.489 98.7389C185.585 99.3138 186.067 99.7929 186.693 99.7929V98.5952Z" fill="#93EA20"/>
<path d="M199.505 120.01H235.919C238.713 118.046 241.121 115.603 243.096 112.872H192.376C194.351 115.603 196.76 118.046 199.505 120.01Z" fill="#004550"/>
<path d="M191.365 113.543C193.436 116.417 195.941 118.908 198.831 120.968L200.228 119.004C197.579 117.088 195.218 114.788 193.34 112.153L191.365 113.543ZM243.144 111.674H192.377V114.07H243.144V111.674ZM236.641 120.968C239.531 118.908 242.036 116.417 244.107 113.543L242.132 112.153C240.206 114.788 237.894 117.136 235.196 119.004L236.641 120.968ZM199.505 121.208H235.919V118.812H199.505V121.208ZM192.377 112.872V111.674C191.943 111.674 191.51 111.914 191.317 112.345C191.124 112.728 191.124 113.207 191.413 113.59L192.377 112.872ZM243.144 112.872L244.107 113.59C244.348 113.207 244.396 112.728 244.204 112.345C244.011 111.962 243.577 111.674 243.144 111.674V112.872ZM235.919 120.01V121.208C236.16 121.208 236.401 121.112 236.641 120.968L235.919 120.01ZM199.505 118.812C198.831 118.812 198.301 119.339 198.301 120.01C198.301 120.681 198.831 121.208 199.505 121.208V118.812Z" fill="#93EA20"/>
<path d="M217.712 125.855C224.263 125.855 230.621 123.795 235.919 120.01H199.505C204.803 123.795 211.21 125.855 217.712 125.855Z" fill="#004550"/>
<path d="M198.831 120.968C204.322 124.897 210.969 127.053 217.76 127.053V124.657C211.499 124.657 205.333 122.693 200.276 119.052L198.831 120.968ZM235.919 118.812H199.505V121.208H235.919V118.812ZM217.712 127.053C224.503 127.053 231.102 124.945 236.641 120.968L235.245 119.004C230.139 122.645 224.022 124.609 217.76 124.609L217.712 127.053ZM199.505 120.01V118.812C198.975 118.812 198.542 119.148 198.349 119.627C198.205 120.106 198.349 120.681 198.783 120.968L199.505 120.01ZM235.919 120.01L236.641 120.968C237.075 120.681 237.268 120.106 237.075 119.627C236.882 119.148 236.449 118.812 235.919 118.812V120.01ZM217.712 125.855V124.657V125.855Z" fill="#93EA20"/>
<path d="M192.377 112.872H243.144C244.733 110.668 246.034 108.273 246.997 105.733H188.523C189.438 108.273 190.739 110.668 192.377 112.872Z" fill="#004550"/>
<path d="M187.367 106.117C188.379 108.752 189.727 111.243 191.365 113.543L193.34 112.153C191.798 110.045 190.546 107.698 189.631 105.254L187.367 106.117ZM246.997 104.536H188.523V106.931H246.997V104.536ZM244.107 113.543C245.745 111.243 247.093 108.752 248.105 106.117L245.841 105.254C244.926 107.698 243.674 109.997 242.132 112.153L244.107 113.543ZM192.376 114.07H243.144V111.674H192.376V114.07ZM188.523 105.733V104.536C188.138 104.536 187.752 104.727 187.512 105.063C187.271 105.398 187.223 105.781 187.367 106.165L188.523 105.733ZM246.997 105.733L248.105 106.165C248.249 105.781 248.201 105.398 247.96 105.063C247.72 104.727 247.382 104.536 246.949 104.536V105.733H246.997ZM243.144 112.872V114.07C243.529 114.07 243.914 113.878 244.107 113.59L243.144 112.872ZM192.376 111.674C191.702 111.674 191.172 112.201 191.172 112.872C191.172 113.543 191.702 114.07 192.376 114.07V111.674Z" fill="#93EA20"/>
<path d="M191.943 77.1323C190.402 79.336 189.198 81.7314 188.282 84.2706H247.142C246.227 81.7314 245.022 79.336 243.481 77.1323H191.943Z" fill="#004550"/>
<path d="M243.481 75.9345H191.943V78.33H243.481V75.9345ZM248.298 83.8873C247.383 81.2524 246.082 78.7611 244.493 76.4615L242.518 77.803C243.963 79.9109 245.167 82.2584 246.034 84.7017L248.298 83.8873ZM188.282 85.4683H247.142V83.0729H188.282V85.4683ZM190.98 76.4136C189.39 78.7132 188.138 81.2044 187.175 83.8394L189.438 84.6538C190.305 82.2105 191.51 79.9109 192.955 77.7551L190.98 76.4136ZM243.481 77.1322L244.493 76.4615C244.252 76.1262 243.915 75.9345 243.481 75.9345V77.1322ZM247.142 84.2706V85.4683C247.527 85.4683 247.912 85.2766 248.105 84.9413C248.346 84.6059 248.394 84.2227 248.25 83.8394L247.142 84.2706ZM188.282 84.2706L187.126 83.8873C186.982 84.2706 187.03 84.6538 187.271 84.9892C187.512 85.3245 187.849 85.5162 188.234 85.5162V84.2706H188.282ZM191.943 77.1322V75.9345C191.558 75.9345 191.172 76.1262 190.932 76.4615L191.943 77.1322Z" fill="#93EA20"/>
<path d="M236.593 69.946H198.879C196.23 71.9582 193.87 74.3536 191.991 77.0844H243.529C241.603 74.4015 239.242 71.9582 236.593 69.946Z" fill="#004550"/>
<path d="M244.493 76.4136C242.518 73.5871 240.109 71.0479 237.316 68.9879L235.871 70.9042C238.424 72.8205 240.687 75.168 242.518 77.7551L244.493 76.4136ZM191.943 78.33H243.481V75.9346H191.943V78.33ZM198.156 68.9879C195.411 71.0479 192.955 73.5871 190.98 76.4136L192.955 77.7551C194.785 75.1201 197.049 72.8205 199.601 70.9042L198.156 68.9879ZM236.593 68.7483H198.879V71.1437H236.593V68.7483ZM243.481 77.1323V78.33C243.915 78.33 244.348 78.0904 244.541 77.7072C244.733 77.3239 244.733 76.8448 244.444 76.4616L243.481 77.1323ZM191.943 77.1323L190.932 76.4616C190.691 76.8448 190.643 77.3239 190.835 77.7072C191.028 78.0904 191.461 78.33 191.895 78.33V77.1323H191.943ZM198.879 69.946V68.7483C198.638 68.7483 198.349 68.8441 198.156 68.9879L198.879 69.946Z" fill="#93EA20"/>
<path d="M186.645 91.4089H248.828C248.539 88.9656 248.009 86.5702 247.142 84.2706H188.282C187.464 86.5702 186.886 88.9656 186.645 91.4089Z" fill="#004550"/>
<path d="M187.175 83.8394C186.308 86.2348 185.73 88.7261 185.441 91.2652L187.849 91.5047C188.09 89.1572 188.668 86.8576 189.438 84.6539L187.175 83.8394ZM247.142 83.0729H188.282V85.4683H247.142V83.0729ZM250.032 91.2652C249.743 88.7261 249.165 86.2348 248.298 83.8394L246.034 84.6539C246.853 86.8576 247.383 89.1572 247.623 91.5047L250.032 91.2652ZM186.645 92.6066H248.828V90.2112H186.645V92.6066ZM188.282 84.2706V83.0729C187.753 83.0729 187.319 83.4082 187.126 83.8394L188.282 84.2706ZM247.142 84.2706L248.298 83.8394C248.105 83.3603 247.672 83.0729 247.142 83.0729V84.2706ZM248.828 91.4089V92.6066C249.165 92.6066 249.502 92.4629 249.743 92.2234C249.984 91.9838 250.08 91.6485 250.032 91.3131L248.828 91.4089ZM186.645 90.2112C185.971 90.2112 185.441 90.7382 185.441 91.4089C185.441 92.0796 185.971 92.6066 186.645 92.6066V90.2112Z" fill="#93EA20"/>
<path d="M217.712 63.6221C210.872 63.6221 204.274 65.8259 198.831 69.946H236.545C231.15 65.8738 224.552 63.6221 217.712 63.6221Z" fill="#004550"/>
<path d="M237.316 69.0358C231.68 64.7719 224.793 62.4723 217.712 62.4723V64.8678C224.263 64.8678 230.621 67.0236 235.871 70.9521L237.316 69.0358ZM198.879 71.1437H236.593V68.7483H198.879V71.1437ZM217.712 62.4244C210.632 62.4244 203.744 64.724 198.108 68.9879L199.553 70.9042C204.755 66.9278 211.113 64.8199 217.712 64.8199V62.4244ZM236.593 69.946V71.1437C237.123 71.1437 237.557 70.8084 237.749 70.3293C237.942 69.8502 237.749 69.3232 237.316 68.9879L236.593 69.946ZM198.879 69.946L198.157 68.9879C197.723 69.3232 197.579 69.8502 197.723 70.3293C197.868 70.8084 198.349 71.1437 198.879 71.1437V69.946Z" fill="#93EA20"/>
<path d="M262.796 49.5371H1.2041V51.9325H262.796V49.5371Z" fill="#00E296"/>
<path d="M22.1566 31.0924H19.7483V50.7348H22.1566V31.0924Z" fill="#00E296"/>
<path d="M38.7257 31.0924H36.3174V50.7348H38.7257V31.0924Z" fill="#00E296"/>
<path d="M55.3431 31.0924H52.9348V50.7348H55.3431V31.0924Z" fill="#00E296"/>
<path d="M72.8759 31.0924H70.4675V50.7348H72.8759V31.0924Z" fill="#00E296"/>
<path d="M90.4083 31.0924H88V50.7348H90.4083V31.0924Z" fill="#00E296"/>
<path d="M107.893 31.0924H105.484V50.7348H107.893V31.0924Z" fill="#00E296"/>
<path d="M157.841 31.0924H155.433V50.7348H157.841V31.0924Z" fill="#00E296"/>
<path d="M174.459 31.0924H172.05V50.7348H174.459V31.0924Z" fill="#00E296"/>
<path d="M191.076 31.0924H188.668V50.7348H191.076V31.0924Z" fill="#00E296"/>
<path d="M208.609 31.0924H206.2V50.7348H208.609V31.0924Z" fill="#00E296"/>
<path d="M226.093 31.0924H223.685V50.7348H226.093V31.0924Z" fill="#00E296"/>
<path d="M243.626 31.0924H241.217V50.7348H243.626V31.0924Z" fill="#00E296"/>
<path d="M74.7543 4.26383C75.9584 3.06613 77.5479 2.39541 79.2337 2.39541V0C76.9218 0 74.7061 0.910256 73.0684 2.53914L74.7543 4.26383ZM72.9239 8.7193C72.9239 7.04251 73.5983 5.41363 74.8024 4.26383L73.1166 2.58704C71.479 4.21592 70.5638 6.4197 70.5638 8.76721L72.9239 8.7193ZM72.9239 31.0924V8.7193H70.5156V31.0924H72.9239ZM189.872 29.8947H71.7198V32.2901H189.872V29.8947ZM188.668 8.7193V31.0924H191.076V8.7193H188.668ZM186.789 4.26383C187.993 5.46154 188.668 7.04251 188.668 8.7193H191.076C191.076 6.4197 190.161 4.16802 188.523 2.53914L186.789 4.26383ZM182.31 2.39541C183.996 2.39541 185.633 3.06613 186.789 4.26383L188.475 2.58704C186.837 0.958165 184.622 0.0479082 182.262 0.0479082V2.39541H182.31ZM79.2337 2.39541H182.31V0H79.2337V2.39541ZM71.7198 8.7193H72.9239H71.7198ZM71.7198 31.0924H70.5156C70.5156 31.7632 71.0455 32.2901 71.7198 32.2901V31.0924ZM189.872 31.0924V32.2901C190.546 32.2901 191.076 31.7632 191.076 31.0924H189.872ZM189.872 8.7193H191.076H189.872ZM79.2337 0C78.5594 0 78.0296 0.526991 78.0296 1.19771C78.0296 1.86842 78.5594 2.39541 79.2337 2.39541V0Z" fill="#00E296"/>
<path d="M85.3509 13.3185C85.5917 13.2227 85.7844 13.1748 86.0252 13.1748V10.7794C85.4954 10.7794 84.9174 10.8752 84.4357 11.1147L85.3509 13.3185ZM84.7729 13.7018C84.9174 13.558 85.1582 13.4143 85.3509 13.3185L84.4357 11.1147C83.9059 11.3063 83.4724 11.6417 83.087 12.025L84.7729 13.7018ZM84.3875 14.2767C84.4839 14.0371 84.6284 13.8455 84.7729 13.7018L83.087 12.025C82.7017 12.4082 82.3646 12.8873 82.1719 13.3664L84.3875 14.2767ZM84.243 14.9474C84.243 14.7078 84.2912 14.4683 84.3875 14.2767L82.1719 13.3664C81.9792 13.8934 81.8347 14.4204 81.8347 14.9474H84.243ZM84.243 31.0924V14.9474H81.8347V31.0924H84.243ZM179.661 29.8947H83.0389V32.2901H179.661V29.8947ZM178.457 14.9474V31.0924H180.865V14.9474H178.457ZM178.312 14.2767C178.408 14.5162 178.457 14.7078 178.457 14.9474H180.865C180.865 14.4204 180.768 13.8455 180.528 13.3664L178.312 14.2767ZM177.927 13.7018C178.071 13.8455 178.216 14.085 178.312 14.2767L180.528 13.3664C180.335 12.8394 179.998 12.4082 179.613 12.025L177.927 13.7018ZM177.349 13.3185C177.59 13.4143 177.782 13.558 177.927 13.7018L179.613 12.025C179.227 11.6417 178.746 11.3063 178.264 11.1147L177.349 13.3185ZM176.674 13.1748C176.915 13.1748 177.156 13.2227 177.349 13.3185L178.264 11.1147C177.734 10.9231 177.204 10.7794 176.674 10.7794V13.1748ZM86.0734 13.1748H176.674V10.7794H86.0734V13.1748ZM83.0389 14.9474H84.243H83.0389ZM83.0389 31.0924H81.8347C81.8347 31.7632 82.3645 32.2901 83.0389 32.2901V31.0924ZM179.661 31.0924V32.2901C180.335 32.2901 180.865 31.7632 180.865 31.0924H179.661ZM179.661 14.9474H178.457H179.661Z" fill="#00E296"/>
<path d="M15.2688 94.7625C15.2688 96.056 15.3651 97.3016 15.5096 98.5952H248.731C248.876 97.3016 248.972 96.056 248.972 94.7625C248.972 93.6606 248.924 92.5587 248.779 91.4089H15.4615C15.317 92.5108 15.2688 93.6127 15.2688 94.7625Z" fill="#004550"/>
<path d="M14.2574 91.2652C14.1129 92.415 14.0647 93.5648 14.0647 94.7146H16.473C16.473 93.6606 16.5212 92.5587 16.6657 91.5048L14.2574 91.2652ZM248.828 90.2112H15.4615V92.6067H248.876V90.2112H248.828ZM250.225 94.7625C250.225 93.6127 250.176 92.4629 250.032 91.3131L247.624 91.5527C247.72 92.6067 247.816 93.7085 247.816 94.7625H250.225ZM249.936 98.7389C250.128 97.3975 250.176 96.104 250.225 94.7625H247.816C247.816 96.0081 247.72 97.2058 247.575 98.4515L249.936 98.7389ZM15.5097 99.7929H248.731V97.3975H15.5097V99.7929ZM14.0647 94.7625C14.0647 96.104 14.161 97.4454 14.3537 98.7389L16.762 98.4515C16.6175 97.2058 16.5212 96.0081 16.5212 94.7625H14.0647ZM15.4615 91.4089V90.2112C14.8354 90.2112 14.3537 90.6903 14.2574 91.2652L15.4615 91.4089ZM248.828 91.4089L250.032 91.2652C249.984 90.6424 249.454 90.2112 248.828 90.2112V91.4089ZM249.02 94.7625H250.225H249.02ZM248.731 98.5952V99.7929C249.358 99.7929 249.839 99.3617 249.936 98.7389L248.731 98.5952ZM15.5097 98.5952L14.3055 98.7389C14.4019 99.3138 14.8835 99.7929 15.5097 99.7929V98.5952Z" fill="#93EA20"/>
<path d="M150.231 88.9177H154.084V77.803H154.181L157.504 88.9177H160.731L164.055 77.803H164.151V88.9177H168.679V72.4852H162.562L159.575 82.3543H159.479L156.493 72.4852H150.279V88.9177H150.231ZM140.405 77.276H140.501L142.284 82.7375H138.671L140.405 77.276ZM132.554 88.9177H136.744L137.756 85.6599H143.199L144.307 88.9177H149.027L143.295 72.4852H138.382L132.554 88.9177ZM120.127 88.9177H131.783V85.612H124.751V82.1626H130.049V78.9049H124.751V75.7908H131.543V72.4852H120.127V88.9177ZM106.448 88.9177H118.104V85.612H111.072V82.1626H116.418V78.9049H111.072V75.7908H117.863V72.4852H106.448V88.9177ZM94.7434 88.9177H99.5119L105.147 72.4852H100.909L97.4407 83.5999H97.3444L93.8282 72.4852H89.1079L94.7434 88.9177Z" fill="#004550"/>
</svg>
