<svg width="1058" height="686" viewBox="0 0 1058 686" fill="none" xmlns="http://www.w3.org/2000/svg">
<path d="M65.6011 325.719C65.4711 329.819 63.2811 338.719 60.0711 341.719C56.9904 344.605 52.8894 346.15 48.67 346.013C44.4505 345.876 40.4582 344.069 37.5711 340.989L19.4711 321.459C16.5991 318.352 15.0672 314.239 15.2076 310.01C15.348 305.781 17.1493 301.778 20.2211 298.869V298.869C23.3035 295.982 27.4062 294.437 31.6273 294.574C35.8483 294.711 39.8423 296.518 42.7311 299.599" stroke="#00E296" stroke-width="5" stroke-linecap="round" stroke-linejoin="round"/>
<path d="M42.7511 364.209C39.7507 367.181 35.6932 368.839 31.4704 368.821C27.2475 368.802 23.2049 367.107 20.2311 364.109L7.58108 351.199C4.62356 348.172 2.97777 344.101 3.00023 339.869C3.02269 335.637 4.71159 331.584 7.70108 328.589V328.589C13.9311 322.399 21.8311 324.709 27.9811 330.949L40.6411 343.869C46.8011 350.109 48.9811 358.019 42.7511 364.209Z" stroke="#00E296" stroke-width="5" stroke-linecap="round" stroke-linejoin="round"/>
<path d="M65.6011 325.719L13.2211 266.019C10.7027 263.25 9.38702 259.594 9.56329 255.854C9.73955 252.115 11.3933 248.599 14.1611 246.079C16.9275 243.56 20.5812 242.243 24.3187 242.417C28.0561 242.592 31.5712 244.243 34.0911 247.009L85.6711 298.649" stroke="#00E296" stroke-width="5" stroke-linecap="round" stroke-linejoin="round"/>
<path d="M896.291 254.559C896.303 257.234 896.483 259.906 896.831 262.559H1025.65C1025.99 259.906 1026.17 257.234 1026.19 254.559C1026.19 252.22 1026.06 249.883 1025.8 247.559H896.671C896.421 249.884 896.294 252.221 896.291 254.559Z" fill="#004550" stroke="#93EA20" stroke-width="5" stroke-linejoin="round"/>
<path d="M961.241 189.609C947.084 189.604 933.318 194.253 922.061 202.839H1000.41C989.158 194.254 975.395 189.606 961.241 189.609Z" fill="#004550" stroke="#93EA20" stroke-width="5" stroke-linejoin="round"/>
<path d="M868.861 121.709V162.679" stroke="#00E296" stroke-width="5" stroke-linejoin="round"/>
<path d="M903.381 121.709V162.679" stroke="#00E296" stroke-width="5" stroke-linejoin="round"/>
<path d="M939.751 121.709V162.679" stroke="#00E296" stroke-width="5" stroke-linejoin="round"/>
<path d="M976.111 121.709V162.679" stroke="#00E296" stroke-width="5" stroke-linejoin="round"/>
<path d="M1012.48 121.709V162.679" stroke="#00E296" stroke-width="5" stroke-linejoin="round"/>
<path d="M944.591 499.839C949.186 499.839 952.911 496.114 952.911 491.519C952.911 486.924 949.186 483.199 944.591 483.199C939.996 483.199 936.271 486.924 936.271 491.519C936.271 496.114 939.996 499.839 944.591 499.839Z" stroke="#00E296" stroke-width="5" stroke-linecap="round" stroke-linejoin="round"/>
<path d="M952.911 491.519V460.999H986.211V491.519" stroke="#00E296" stroke-width="5" stroke-linecap="round" stroke-linejoin="round"/>
<path d="M977.881 499.839C982.476 499.839 986.201 496.114 986.201 491.519C986.201 486.924 982.476 483.199 977.881 483.199C973.286 483.199 969.561 486.924 969.561 491.519C969.561 496.114 973.286 499.839 977.881 499.839Z" stroke="#00E296" stroke-width="5" stroke-linecap="round" stroke-linejoin="round"/>
<path d="M1035.68 121.709H530.831C520.266 121.709 511.701 130.274 511.701 140.839V331.519C511.701 342.084 520.266 350.649 530.831 350.649H1035.68C1046.25 350.649 1054.81 342.084 1054.81 331.519V140.839C1054.81 130.274 1046.25 121.709 1035.68 121.709Z" stroke="#00E296" stroke-width="5" stroke-linejoin="round"/>
<path d="M976.991 200.399H579.021V247.609H976.991V200.399Z" fill="#93EA20"/>
<path d="M976.991 262.529H579.021V311.789H976.991V262.529Z" fill="#93EA20"/>
<path d="M705.064 303.229H714.71V290.763H718.223L724.505 303.229H734.498L726.83 288.487V288.289C730.392 286.755 732.52 284.331 732.52 279.632C732.52 272.261 728.166 268.946 719.509 268.946H705.064V303.229ZM714.611 284.975V275.476H718.074C721.537 275.476 722.972 276.911 722.972 280.077C722.972 283.342 721.587 284.975 718.173 284.975H714.611ZM734.618 303.229H743.275L745.402 296.452H756.681L758.957 303.229H768.752L756.879 268.946H746.639L734.618 303.229ZM750.893 278.89H751.091L754.752 290.268H747.282L750.893 278.89ZM771.346 303.229H784.604C795.289 303.229 801.671 298.035 801.671 286.409V285.271C801.671 273.448 795.289 268.946 784.554 268.946H771.346V303.229ZM780.992 296.452V275.724H784.158C788.858 275.724 791.529 277.801 791.529 285.123V286.854C791.529 294.077 789.204 296.452 784.406 296.452H780.992ZM805.651 303.229H815.297V268.946H805.651V303.229ZM835.663 303.823C844.468 303.823 852.383 298.777 852.383 286.558V285.42C852.383 273.399 845.111 268.353 835.91 268.353C827.104 268.353 819.189 273.399 819.189 285.618V286.755C819.189 298.777 826.461 303.823 835.663 303.823ZM835.86 296.798C831.507 296.798 829.281 294.127 829.281 286.706V284.975C829.281 278.494 831.507 275.377 835.712 275.377C840.263 275.377 842.242 278.247 842.242 285.42V287.151C842.242 293.681 840.065 296.798 835.86 296.798Z" fill="#004550"/>
<path d="M544.571 277.459H666.001C667.827 272.649 669.066 267.636 669.691 262.529H540.871C541.505 267.635 542.747 272.648 544.571 277.459Z" fill="#004550" stroke="#93EA20" stroke-width="5" stroke-linejoin="round"/>
<path d="M540.331 254.559C540.348 257.234 540.528 259.906 540.871 262.559H669.691C670.039 259.906 670.219 257.234 670.231 254.559C670.228 252.221 670.101 249.884 669.851 247.559H540.721C540.463 249.883 540.333 252.22 540.331 254.559Z" fill="#004550" stroke="#93EA20" stroke-width="5" stroke-linejoin="round"/>
<path d="M567.491 307.309H643.081C648.839 303.181 653.883 298.137 658.011 292.379H552.561C556.689 298.137 561.733 303.181 567.491 307.309Z" fill="#004550" stroke="#93EA20" stroke-width="5" stroke-linejoin="round"/>
<path d="M605.281 319.509C618.849 319.511 632.074 315.243 643.081 307.309H567.491C578.495 315.241 591.716 319.51 605.281 319.509Z" fill="#004550" stroke="#93EA20" stroke-width="5" stroke-linejoin="round"/>
<path d="M552.561 292.379H658.011C661.318 287.777 664.008 282.761 666.011 277.459H544.571C546.567 282.762 549.253 287.778 552.561 292.379Z" fill="#004550" stroke="#93EA20" stroke-width="5" stroke-linejoin="round"/>
<path d="M551.791 217.759C548.621 222.385 546.066 227.404 544.191 232.689H666.381C664.506 227.404 661.952 222.385 658.781 217.759H551.791Z" fill="#004550" stroke="#93EA20" stroke-width="5" stroke-linejoin="round"/>
<path d="M644.461 202.839H566.161C560.625 207.019 555.791 212.056 551.841 217.759H658.841C654.873 212.051 650.019 207.014 644.461 202.839Z" fill="#004550" stroke="#93EA20" stroke-width="5" stroke-linejoin="round"/>
<path d="M540.721 247.609H669.851C669.293 242.515 668.128 237.506 666.381 232.689H544.161C542.425 237.508 541.27 242.516 540.721 247.609Z" fill="#004550" stroke="#93EA20" stroke-width="5" stroke-linejoin="round"/>
<path d="M605.281 189.609C591.144 189.617 577.401 194.265 566.161 202.839H644.461C633.205 194.253 619.438 189.604 605.281 189.609Z" fill="#004550" stroke="#93EA20" stroke-width="5" stroke-linejoin="round"/>
<path d="M511.701 162.679H1054.81" stroke="#00E296" stroke-width="5" stroke-linejoin="round"/>
<path d="M552.661 121.709V162.679" stroke="#00E296" stroke-width="5" stroke-linejoin="round"/>
<path d="M587.121 121.709V162.679" stroke="#00E296" stroke-width="5" stroke-linejoin="round"/>
<path d="M658.011 121.709V162.679" stroke="#00E296" stroke-width="5" stroke-linejoin="round"/>
<path d="M694.381 121.709V162.679" stroke="#00E296" stroke-width="5" stroke-linejoin="round"/>
<path d="M673.721 59.289H887.661C891.823 59.2863 895.815 60.9348 898.762 63.8727C901.709 66.8105 903.371 70.7977 903.381 74.959V121.659H658.011V74.959C658.011 72.8959 658.418 70.8531 659.207 68.9471C659.997 67.041 661.154 65.3092 662.613 63.8504C664.071 62.3916 665.803 61.2344 667.709 60.4449C669.615 59.6554 671.658 59.249 673.721 59.249V59.289Z" stroke="#00E296" stroke-width="5" stroke-linejoin="round"/>
<path d="M687.881 81.769H875.971C877.626 81.769 879.213 82.4265 880.383 83.5967C881.554 84.7669 882.211 86.3541 882.211 88.009V121.709H681.661V87.959C681.674 86.3162 682.335 84.7449 683.499 83.586C684.664 82.4272 686.238 81.7743 687.881 81.769V81.769Z" stroke="#00E296" stroke-width="5" stroke-linejoin="round"/>
<path d="M540.871 254.559C540.888 257.234 541.068 259.906 541.411 262.559H1025.65C1025.99 259.906 1026.17 257.234 1026.19 254.559C1026.19 252.22 1026.06 249.883 1025.8 247.559H541.261C541.003 249.883 540.873 252.22 540.871 254.559Z" fill="#004550" stroke="#93EA20" stroke-width="5" stroke-linejoin="round"/>
<path d="M705.934 242.409H715.828L727.552 208.126H718.747L711.524 231.278H711.326L704.005 208.126H694.209L705.934 242.409ZM730.258 242.409H754.448V235.533H739.805V228.31H750.887V221.533H739.805V215.003H753.954V208.126H730.258V242.409ZM758.616 242.409H782.807V235.533H768.164V228.31H779.245V221.533H768.164V215.003H782.312V208.126H758.616V242.409ZM784.402 242.409H793.059L795.186 235.632H806.465L808.741 242.409H818.536L806.663 208.126H796.423L784.402 242.409ZM800.677 218.07H800.875L804.536 229.448H797.066L800.677 218.07ZM821.13 242.409H829.094V219.208H829.292L836.169 242.409H842.847L849.773 219.257H849.971V242.409H859.42V208.126H846.706L840.473 228.755H840.275L834.041 208.126H821.13V242.409Z" fill="#004550"/>
<path d="M538.661 116.229C544.661 117.559 610.491 116.729 610.491 116.729L608.331 168.269C608.331 168.269 544.481 314.069 524.531 313.459C504.581 312.849 436.291 313.459 436.291 313.459L477.971 125.459L538.661 116.229Z" fill="#004550"/>
<path d="M443.791 177.739C439.404 173.522 434.047 170.449 428.191 168.792C422.336 167.136 416.163 166.946 410.216 168.24C404.27 169.534 398.734 172.272 394.097 176.212C389.459 180.152 385.863 185.174 383.626 190.833C381.388 196.492 380.579 202.615 381.268 208.661C381.957 214.707 384.124 220.49 387.578 225.501C391.031 230.511 395.665 234.594 401.071 237.389C406.476 240.185 412.486 241.607 418.571 241.529L420.341 361.759" stroke="#00E296" stroke-width="5" stroke-linecap="round" stroke-linejoin="round"/>
<path d="M613.851 112.199L614.331 145.099L615.671 235.459C616.301 278.539 581.671 314.309 538.811 314.949L498.871 315.539" fill="#004550"/>
<path d="M613.851 112.199L614.331 145.099L615.671 235.459C616.301 278.539 581.671 314.309 538.811 314.949L498.871 315.539" stroke="#00E296" stroke-width="5" stroke-linecap="round" stroke-linejoin="round"/>
<path d="M418.631 166.349L418.071 128.449C417.441 85.369 452.021 49.599 494.931 48.969" stroke="#00E296" stroke-width="5" stroke-linecap="round" stroke-linejoin="round"/>
<path d="M415.071 183.879C417.877 183.842 420.663 184.358 423.269 185.398C425.875 186.438 428.251 187.982 430.261 189.94C432.271 191.899 433.875 194.234 434.981 196.813C436.088 199.392 436.676 202.163 436.711 204.969" stroke="#00E296" stroke-width="5" stroke-linecap="round" stroke-linejoin="round"/>
<path d="M511.701 317.889L512.361 362.789" stroke="#00E296" stroke-width="5" stroke-linecap="round" stroke-linejoin="round"/>
<path d="M537.241 351.839C537.621 377.209 504.401 397.229 463.051 397.839C433.181 398.279 407.231 387.929 394.991 372.589" stroke="#00E296" stroke-width="5" stroke-linecap="round" stroke-linejoin="round"/>
<path d="M102.891 427.399L191.161 548.839C198.593 557.778 209.011 563.724 220.487 565.577C231.964 567.43 243.723 565.065 253.591 558.919L316.471 515.159" stroke="#00E296" stroke-width="5" stroke-linecap="round" stroke-linejoin="round"/>
<path d="M275.851 464.089L231.721 493.609L146.711 387.499" stroke="#00E296" stroke-width="5" stroke-linecap="round" stroke-linejoin="round"/>
<path d="M370.351 510.259L336.351 539.859L259.811 440.859L270.251 434.459L386.721 359.899C394.998 354.578 404.593 351.67 414.431 351.499H419.431" stroke="#00E296" stroke-width="5" stroke-linecap="round" stroke-linejoin="round"/>
<path d="M348.931 685.649L358.411 520.749" stroke="#00E296" stroke-width="5" stroke-linejoin="round"/>
<path d="M584.621 481.389L605.941 686.429" stroke="#00E296" stroke-width="5" stroke-linejoin="round"/>
<path d="M553.681 194.859C556.458 191.985 559.775 189.688 563.442 188.1C567.109 186.512 571.054 185.664 575.05 185.606C579.046 185.547 583.014 186.279 586.726 187.759C590.438 189.238 593.822 191.437 596.681 194.229" stroke="#00E296" stroke-width="5" stroke-linecap="round" stroke-linejoin="round"/>
<path d="M571.671 247.599C568.895 250.473 565.577 252.77 561.91 254.358C558.243 255.946 554.298 256.794 550.302 256.852C546.306 256.911 542.338 256.179 538.626 254.699C534.914 253.22 531.531 251.021 528.671 248.229" stroke="#00E296" stroke-width="5" stroke-linecap="round" stroke-linejoin="round"/>
<path d="M486.841 195.849C489.617 192.974 492.934 190.676 496.601 189.087C500.269 187.498 504.214 186.65 508.21 186.591C512.206 186.533 516.175 187.265 519.887 188.746C523.599 190.226 526.982 192.426 529.841 195.219" stroke="#00E296" stroke-width="5" stroke-linecap="round" stroke-linejoin="round"/>
<path d="M419.161 119.249L639.051 107.649C607.861 -25.6011 424.481 6.35891 424.481 6.35891C248.161 46.5689 284.161 284.379 284.161 284.379L419.231 282.379" stroke="#00E296" stroke-width="5" stroke-linecap="round" stroke-linejoin="round"/>
<path d="M348.321 283.279C348.321 283.279 307.991 58.7991 454.811 31.0291" stroke="#00E296" stroke-width="5" stroke-linecap="round" stroke-linejoin="round"/>
<path d="M129.341 300.349L145.481 325.679C157.571 344.679 162.401 372.389 146.901 387.549" stroke="#00E296" stroke-width="5" stroke-linecap="round" stroke-linejoin="round"/>
<path d="M124.371 407.059L105.941 388.629C101.086 380.97 99.4504 371.704 101.388 362.846C103.326 353.987 108.682 346.251 116.291 341.319" stroke="#00E296" stroke-width="5" stroke-linecap="round" stroke-linejoin="round"/>
<path d="M126.361 294.779C131.891 303.329 130.091 314.449 122.361 319.489L94.0912 337.789C86.3512 342.789 75.5012 339.959 69.9712 331.409C64.4412 322.869 66.2412 311.749 73.9712 306.699L102.241 288.399C109.981 283.359 120.831 286.229 126.361 294.779Z" stroke="#00E296" stroke-width="5" stroke-linecap="round" stroke-linejoin="round"/>
<path d="M114.001 326.469L116.291 341.319" stroke="#00E296" stroke-width="5" stroke-linecap="round" stroke-linejoin="round"/>
<path d="M26.4111 367.979C38.8111 391.079 79.8511 439.879 102.891 427.399" stroke="#00E296" stroke-width="5" stroke-linecap="round" stroke-linejoin="round"/>
<path d="M85.6611 298.649L61.5311 230.279C60.9273 228.527 60.6747 226.674 60.7877 224.824C60.9008 222.975 61.3772 221.166 62.1899 219.5C63.0025 217.835 64.1354 216.346 65.5237 215.119C66.9121 213.892 68.5287 212.951 70.2811 212.349V212.349C72.0329 211.745 73.8865 211.493 75.7359 211.606C77.5854 211.719 79.3945 212.195 81.0597 213.008C82.7249 213.82 84.2136 214.953 85.4407 216.342C86.6678 217.73 87.6092 219.347 88.2111 221.099L113.071 286.099" stroke="#00E296" stroke-width="5" stroke-linecap="round" stroke-linejoin="round"/>
<path d="M531.431 428.999C529.858 428.149 528.126 427.634 526.343 427.487C524.561 427.34 522.768 427.563 521.077 428.144C519.385 428.725 517.833 429.65 516.517 430.861C515.201 432.071 514.15 433.542 513.431 435.179L467.201 540.179C466.121 542.429 465.201 543.989 462.591 543.999C459.981 544.009 458.991 542.459 457.811 540.209L407.041 435.539C403.481 428.539 395.311 425.869 388.791 429.489C382.271 433.109 379.861 441.699 383.421 448.669L432.931 545.569L438.551 556.569C443.481 566.209 452.931 572.179 463.221 572.149C468.311 572.099 473.28 570.587 477.535 567.793C481.79 564.999 485.153 561.04 487.221 556.389L492.371 545.389L537.651 448.159C539.222 444.77 539.454 440.912 538.3 437.359C537.147 433.805 534.693 430.819 531.431 428.999V428.999Z" stroke="#93EA20" stroke-width="5" stroke-linecap="round" stroke-linejoin="round"/>
<path d="M569.751 485.519L675.411 456.169L663.191 351.439" stroke="#00E296" stroke-width="5" stroke-linecap="round" stroke-linejoin="round"/>
<path d="M671.011 423.879L812.571 399.059C813.431 398.959 811.731 399.219 812.571 399.059C827.091 396.289 839.571 384.869 841.931 372.189C842.761 367.709 843.671 355.249 842.461 350.649" stroke="#00E296" stroke-width="5" stroke-linecap="round" stroke-linejoin="round"/>
<path d="M843.821 144.459C852.381 143.729 858.821 137.119 858.221 129.759L856.831 114.599C856.191 107.249 848.651 101.819 840.091 102.549C831.531 103.279 825.091 109.889 825.701 117.249L827.081 132.459C827.731 139.799 835.261 145.229 843.821 144.459Z" fill="#004550" stroke="#00E296" stroke-width="5" stroke-linecap="round" stroke-linejoin="round"/>
<path d="M748.891 145.679C757.451 144.949 763.891 138.339 763.281 130.979L761.901 115.819C761.251 108.469 753.721 103.039 745.161 103.769C736.601 104.499 730.161 111.109 730.771 118.469L732.161 133.629C732.801 140.979 740.331 146.459 748.891 145.679Z" fill="#004550" stroke="#00E296" stroke-width="5" stroke-linecap="round" stroke-linejoin="round"/>
<path d="M812.721 149.669C821.281 148.939 827.721 142.329 827.111 134.969L823.111 105.799C822.471 98.449 814.941 93.029 806.381 93.799C797.811 94.529 791.381 101.139 791.981 108.499L795.981 137.669C796.621 144.969 804.161 150.399 812.721 149.669Z" fill="#004550" stroke="#00E296" stroke-width="5" stroke-linecap="round" stroke-linejoin="round"/>
<path d="M780.351 146.459C788.911 145.729 795.351 139.119 794.751 131.769L791.601 107.259C790.951 99.909 783.421 94.489 774.861 95.209C766.301 95.939 759.861 102.549 760.471 109.909L763.611 134.409C764.261 141.709 771.791 147.139 780.351 146.459Z" fill="#004550" stroke="#00E296" stroke-width="5" stroke-linecap="round" stroke-linejoin="round"/>
<path d="M896.671 247.609H1025.8C1025.24 242.515 1024.08 237.506 1022.33 232.689H900.161C898.408 237.506 897.236 242.514 896.671 247.609Z" fill="#004550" stroke="#93EA20" stroke-width="5" stroke-linejoin="round"/>
<path d="M907.741 217.759C904.571 222.385 902.016 227.404 900.141 232.689H1022.33C1020.46 227.404 1017.9 222.385 1014.73 217.759H907.741Z" fill="#004550" stroke="#93EA20" stroke-width="5" stroke-linejoin="round"/>
<path d="M1000.41 202.839H922.061C916.525 207.019 911.691 212.056 907.741 217.759H1014.74C1010.79 212.055 1005.95 207.018 1000.41 202.839Z" fill="#004550" stroke="#93EA20" stroke-width="5" stroke-linejoin="round"/>
<path d="M900.521 277.459H1021.95C1023.78 272.648 1025.02 267.635 1025.65 262.529H896.831C897.456 267.636 898.695 272.649 900.521 277.459Z" fill="#004550" stroke="#93EA20" stroke-width="5" stroke-linejoin="round"/>
<path d="M908.511 292.379H1013.96C1017.27 287.779 1019.96 282.762 1021.96 277.459H900.521C902.521 282.76 905.207 287.776 908.511 292.379Z" fill="#004550" stroke="#93EA20" stroke-width="5" stroke-linejoin="round"/>
<path d="M923.441 307.309H999.031C1004.79 303.181 1009.83 298.137 1013.96 292.379H908.511C912.642 298.135 917.685 303.178 923.441 307.309Z" fill="#004550" stroke="#93EA20" stroke-width="5" stroke-linejoin="round"/>
<path d="M961.241 319.509C974.806 319.51 988.027 315.241 999.031 307.309H923.441C934.448 315.243 947.673 319.511 961.241 319.509Z" fill="#004550" stroke="#93EA20" stroke-width="5" stroke-linejoin="round"/>
</svg>
